<mxfile host="app.diagrams.net" modified="2022-03-25T07:33:42.932Z" agent="5.0 (Windows NT 10.0; Win64; x64) AppleWebKit/537.36 (KHTML, like Gecko) Chrome/99.0.4844.82 Safari/537.36" etag="CvudLuMdiLuhxP6cx_52" version="17.2.1" type="github">
  <diagram id="cPPrWQnlPhpLSzoiB5nG" name="第 1 页">
    <mxGraphModel dx="1929" dy="591" grid="1" gridSize="10" guides="1" tooltips="1" connect="1" arrows="1" fold="1" page="1" pageScale="1" pageWidth="827" pageHeight="1169" math="0" shadow="0">
      <root>
        <mxCell id="0" />
        <mxCell id="1" parent="0" />
        <mxCell id="yjJ2jLYlYnO1UckRIF0x-1" value="搜索信息" style="endArrow=classic;html=1;rounded=0;entryX=0;entryY=0.5;entryDx=0;entryDy=0;" parent="1" edge="1">
          <mxGeometry width="50" height="50" relative="1" as="geometry">
            <mxPoint y="289.58" as="sourcePoint" />
            <mxPoint x="110" y="289.58" as="targetPoint" />
          </mxGeometry>
        </mxCell>
        <mxCell id="yjJ2jLYlYnO1UckRIF0x-3" value="题目目录" style="rounded=1;whiteSpace=wrap;html=1;" parent="1" vertex="1">
          <mxGeometry x="110" y="260" width="120" height="60" as="geometry" />
        </mxCell>
        <mxCell id="yjJ2jLYlYnO1UckRIF0x-4" value="标签搜索" style="endArrow=classic;html=1;rounded=0;exitX=1;exitY=0.25;exitDx=0;exitDy=0;entryX=0;entryY=0.25;entryDx=0;entryDy=0;" parent="1" source="yjJ2jLYlYnO1UckRIF0x-3" target="yjJ2jLYlYnO1UckRIF0x-28" edge="1">
          <mxGeometry width="50" height="50" relative="1" as="geometry">
            <mxPoint x="230" y="280" as="sourcePoint" />
            <mxPoint x="320" y="250" as="targetPoint" />
          </mxGeometry>
        </mxCell>
        <mxCell id="yjJ2jLYlYnO1UckRIF0x-6" value="难度搜索" style="endArrow=classic;html=1;rounded=0;entryX=0;entryY=0.75;entryDx=0;entryDy=0;exitX=1;exitY=0.75;exitDx=0;exitDy=0;" parent="1" source="yjJ2jLYlYnO1UckRIF0x-3" target="yjJ2jLYlYnO1UckRIF0x-28" edge="1">
          <mxGeometry width="50" height="50" relative="1" as="geometry">
            <mxPoint x="230" y="300" as="sourcePoint" />
            <mxPoint x="320" y="330" as="targetPoint" />
          </mxGeometry>
        </mxCell>
        <mxCell id="yjJ2jLYlYnO1UckRIF0x-26" value="出处搜索" style="endArrow=classic;html=1;rounded=0;entryX=0;entryY=0.5;entryDx=0;entryDy=0;" parent="1" edge="1" target="yjJ2jLYlYnO1UckRIF0x-28">
          <mxGeometry width="50" height="50" relative="1" as="geometry">
            <mxPoint x="230" y="289.58" as="sourcePoint" />
            <mxPoint x="320" y="289.58" as="targetPoint" />
          </mxGeometry>
        </mxCell>
        <mxCell id="yjJ2jLYlYnO1UckRIF0x-28" value="筛选整合" style="rounded=1;whiteSpace=wrap;html=1;" parent="1" vertex="1">
          <mxGeometry x="450" y="260" width="120" height="60" as="geometry" />
        </mxCell>
        <mxCell id="yjJ2jLYlYnO1UckRIF0x-33" style="edgeStyle=orthogonalEdgeStyle;rounded=0;orthogonalLoop=1;jettySize=auto;html=1;entryX=1;entryY=0.5;entryDx=0;entryDy=0;exitX=0;exitY=0.5;exitDx=0;exitDy=0;" parent="1" target="yjJ2jLYlYnO1UckRIF0x-28" edge="1">
          <mxGeometry relative="1" as="geometry">
            <mxPoint x="647" y="290" as="sourcePoint" />
            <mxPoint x="580" y="240" as="targetPoint" />
          </mxGeometry>
        </mxCell>
        <mxCell id="yjJ2jLYlYnO1UckRIF0x-34" value="题目信息" style="edgeLabel;html=1;align=center;verticalAlign=middle;resizable=0;points=[];" parent="yjJ2jLYlYnO1UckRIF0x-33" vertex="1" connectable="0">
          <mxGeometry x="0.1202" y="-2" relative="1" as="geometry">
            <mxPoint as="offset" />
          </mxGeometry>
        </mxCell>
        <mxCell id="yjJ2jLYlYnO1UckRIF0x-35" value="" style="group" parent="1" vertex="1" connectable="0">
          <mxGeometry x="462.5" y="150" width="95" height="40" as="geometry" />
        </mxCell>
        <mxCell id="yjJ2jLYlYnO1UckRIF0x-36" value="" style="group" parent="yjJ2jLYlYnO1UckRIF0x-35" vertex="1" connectable="0">
          <mxGeometry x="7.5" width="80" height="10" as="geometry" />
        </mxCell>
        <mxCell id="yjJ2jLYlYnO1UckRIF0x-37" value="" style="endArrow=none;html=1;rounded=0;" parent="yjJ2jLYlYnO1UckRIF0x-36" edge="1">
          <mxGeometry width="50" height="50" relative="1" as="geometry">
            <mxPoint as="sourcePoint" />
            <mxPoint x="80" as="targetPoint" />
          </mxGeometry>
        </mxCell>
        <mxCell id="yjJ2jLYlYnO1UckRIF0x-38" value="" style="endArrow=none;html=1;rounded=0;" parent="yjJ2jLYlYnO1UckRIF0x-36" edge="1">
          <mxGeometry width="50" height="50" relative="1" as="geometry">
            <mxPoint y="10" as="sourcePoint" />
            <mxPoint x="80" y="10" as="targetPoint" />
          </mxGeometry>
        </mxCell>
        <mxCell id="yjJ2jLYlYnO1UckRIF0x-39" value="DB1. 题目数据库" style="text;html=1;strokeColor=none;fillColor=none;align=center;verticalAlign=middle;whiteSpace=wrap;rounded=0;" parent="yjJ2jLYlYnO1UckRIF0x-35" vertex="1">
          <mxGeometry y="20" width="95" height="20" as="geometry" />
        </mxCell>
        <mxCell id="yjJ2jLYlYnO1UckRIF0x-40" value="" style="endArrow=classic;html=1;rounded=0;entryX=0.591;entryY=1.104;entryDx=0;entryDy=0;entryPerimeter=0;exitX=0.583;exitY=0;exitDx=0;exitDy=0;exitPerimeter=0;" parent="1" target="yjJ2jLYlYnO1UckRIF0x-39" edge="1" source="yjJ2jLYlYnO1UckRIF0x-28">
          <mxGeometry width="50" height="50" relative="1" as="geometry">
            <mxPoint x="520" y="260" as="sourcePoint" />
            <mxPoint x="320" y="200" as="targetPoint" />
          </mxGeometry>
        </mxCell>
        <mxCell id="yjJ2jLYlYnO1UckRIF0x-42" value="" style="endArrow=classic;html=1;rounded=0;entryX=0.392;entryY=-0.035;entryDx=0;entryDy=0;entryPerimeter=0;exitX=0.363;exitY=1.146;exitDx=0;exitDy=0;exitPerimeter=0;" parent="1" source="yjJ2jLYlYnO1UckRIF0x-39" target="yjJ2jLYlYnO1UckRIF0x-28" edge="1">
          <mxGeometry width="50" height="50" relative="1" as="geometry">
            <mxPoint x="350" y="340" as="sourcePoint" />
            <mxPoint x="400" y="290" as="targetPoint" />
          </mxGeometry>
        </mxCell>
        <mxCell id="yjJ2jLYlYnO1UckRIF0x-43" value="题目信息" style="endArrow=classic;html=1;rounded=0;exitX=0.5;exitY=1;exitDx=0;exitDy=0;" parent="1" source="yjJ2jLYlYnO1UckRIF0x-28" edge="1">
          <mxGeometry width="50" height="50" relative="1" as="geometry">
            <mxPoint x="350" y="340" as="sourcePoint" />
            <mxPoint x="510" y="390" as="targetPoint" />
          </mxGeometry>
        </mxCell>
        <mxCell id="F5TxgKN2FVID1b4bTf1U-2" value="标题搜索" style="endArrow=classic;html=1;rounded=0;entryX=-0.018;entryY=0.118;entryDx=0;entryDy=0;entryPerimeter=0;" edge="1" parent="1" target="yjJ2jLYlYnO1UckRIF0x-28">
          <mxGeometry width="50" height="50" relative="1" as="geometry">
            <mxPoint x="230" y="270" as="sourcePoint" />
            <mxPoint x="380" y="230" as="targetPoint" />
            <Array as="points">
              <mxPoint x="340" y="210" />
            </Array>
          </mxGeometry>
        </mxCell>
        <mxCell id="F5TxgKN2FVID1b4bTf1U-3" value="题面搜索" style="endArrow=classic;html=1;rounded=0;exitX=0.947;exitY=1.035;exitDx=0;exitDy=0;exitPerimeter=0;entryX=0.086;entryY=1.007;entryDx=0;entryDy=0;entryPerimeter=0;" edge="1" parent="1" source="yjJ2jLYlYnO1UckRIF0x-3" target="yjJ2jLYlYnO1UckRIF0x-28">
          <mxGeometry width="50" height="50" relative="1" as="geometry">
            <mxPoint x="230" y="400" as="sourcePoint" />
            <mxPoint x="330" y="380" as="targetPoint" />
          </mxGeometry>
        </mxCell>
      </root>
    </mxGraphModel>
  </diagram>
</mxfile>
